<svg xmlns="http://www.w3.org/2000/svg" width="152" height="44.094" viewBox="0 0 152 44.094">
  <g id="filters" transform="translate(-16 -7)">
    <g id="all" transform="translate(-543 -35)">
      <text id="ALL-2" data-name="ALL" transform="translate(571 83.094)" fill="#00a9e0" font-size="12" font-family="SegoeUI, Segoe UI"><tspan x="-9.519" y="0">ALL</tspan></text>
      <g id="ico_all" transform="translate(559 43)">
        <path id="Path_11039" data-name="Path 11039" d="M17.843,0h-6a.469.469,0,0,0-.469.469v6a.469.469,0,0,0,.469.469h6a.469.469,0,0,0,.469-.469v-6A.469.469,0,0,0,17.843,0Zm-.469,6h-5.06V.937h5.06Z" transform="translate(-2.844 0)" fill="#00a9e0"/>
        <path id="Path_11040" data-name="Path 11040" d="M29.22,0h-6a.469.469,0,0,0-.469.469v6a.469.469,0,0,0,.469.469h6a.47.47,0,0,0,.469-.469v-6A.469.469,0,0,0,29.22,0Zm-.468,6h-5.06V.937h5.06Z" transform="translate(-5.689 0)" fill="#00a9e0"/>
        <path id="Path_11041" data-name="Path 11041" d="M6.466,11.369h-6A.469.469,0,0,0,0,11.838v6a.469.469,0,0,0,.469.469h6a.469.469,0,0,0,.469-.469v-6A.47.47,0,0,0,6.466,11.369Zm-5.529,6V12.306H6v5.063Z" transform="translate(0 -2.838)" fill="#00a9e0"/>
        <path id="Path_11042" data-name="Path 11042" d="M17.843,11.369h-6a.469.469,0,0,0-.469.469v6a.469.469,0,0,0,.469.469h6a.469.469,0,0,0,.469-.469v-6A.469.469,0,0,0,17.843,11.369Zm-.469,6h-5.06V12.306h5.06Z" transform="translate(-2.844 -2.838)" fill="#00a9e0"/>
        <path id="Path_11043" data-name="Path 11043" d="M29.22,11.369h-6a.469.469,0,0,0-.469.469v6a.469.469,0,0,0,.469.469h6a.469.469,0,0,0,.469-.469v-6A.469.469,0,0,0,29.22,11.369Zm-.468,6h-5.06V12.306h5.06Z" transform="translate(-5.689 -2.838)" fill="#00a9e0"/>
        <path id="Path_11044" data-name="Path 11044" d="M6.466,22.739h-6A.468.468,0,0,0,0,23.207v6a.469.469,0,0,0,.469.469h6a.469.469,0,0,0,.469-.469v-6A.469.469,0,0,0,6.466,22.739Zm-5.529,6V23.676H6v5.063Z" transform="translate(0 -5.677)" fill="#00a9e0"/>
        <path id="Path_11045" data-name="Path 11045" d="M17.843,22.739h-6a.469.469,0,0,0-.469.469v6a.469.469,0,0,0,.469.469h6a.469.469,0,0,0,.469-.469v-6A.469.469,0,0,0,17.843,22.739Zm-.469,6h-5.06V23.676h5.06Z" transform="translate(-2.844 -5.677)" fill="#00a9e0"/>
        <path id="Path_11046" data-name="Path 11046" d="M27.765,23.539a.469.469,0,1,0-.332.137A.472.472,0,0,0,27.765,23.539Z" transform="translate(-6.741 -5.676)" fill="#00a9e0"/>
        <path id="Path_11047" data-name="Path 11047" d="M29.22,22.739H28.5a.469.469,0,0,0,0,.938h.246V28.74h-5.06V23.677h.628a.469.469,0,0,0,0-.938h-1.1a.469.469,0,0,0-.469.469v6a.469.469,0,0,0,.469.469h6a.469.469,0,0,0,.469-.469v-6A.467.467,0,0,0,29.22,22.739Z" transform="translate(-5.688 -5.677)" fill="#00a9e0"/>
        <path id="Path_11048" data-name="Path 11048" d="M3.922,8.133a.468.468,0,1,0,.663,0A.477.477,0,0,0,4.254,8,.472.472,0,0,0,3.922,8.133Z" transform="translate(-0.946 -1.996)" fill="#00a9e0"/>
        <path id="Path_11049" data-name="Path 11049" d="M.469,6.937h.715a.469.469,0,0,0,0-.938H.937V.937H6V6H5.369a.469.469,0,0,0,0,.938h1.1a.469.469,0,0,0,.469-.469v-6A.47.47,0,0,0,6.466,0h-6A.469.469,0,0,0,0,.469v6A.468.468,0,0,0,.469,6.937Z" transform="translate(0 0)" fill="#00a9e0"/>
      </g>
    </g>
    <g id="new" transform="translate(-479 -35)">
      <text id="NEW-2" data-name="NEW" transform="translate(571 83.094)" fill="#5b6770" font-size="12" font-family="SegoeUI, Segoe UI"><tspan x="-13.128" y="0">NEW</tspan></text>
      <g id="ico_new" transform="translate(563 43)">
        <path id="Path_10913" data-name="Path 10913" d="M15.851,9.976H.816A.786.786,0,0,0,0,10.728v14.99a.746.746,0,0,0,.418.657.876.876,0,0,0,.825-.016L8.33,22.34l7.094,4.018a.875.875,0,0,0,.825.016.746.746,0,0,0,.418-.657V10.728A.784.784,0,0,0,15.851,9.976Zm0,15.741-7.4-4.191a.252.252,0,0,0-.123-.035.24.24,0,0,0-.119.033L.816,25.718V10.728H15.851Z" transform="translate(0 -2.471)" fill="#5b6770"/>
        <path id="Path_10914" data-name="Path 10914" d="M15.851,0H.816A.786.786,0,0,0,0,.752V5.3a.786.786,0,0,0,.816.752H15.851a.786.786,0,0,0,.816-.752V.752A.786.786,0,0,0,15.851,0Zm0,5.3H.816V.752H15.851Z" transform="translate(0)" fill="#5b6770"/>
      </g>
    </g>
    <g id="top" transform="translate(-415 -35)">
      <text id="TOP-2" data-name="TOP" transform="translate(571 83.094)" fill="#5b6770" font-size="12" font-family="SegoeUI, Segoe UI"><tspan x="-10.749" y="0">TOP</tspan></text>
      <g id="ico_top" transform="translate(559 42)">
        <path id="Path_11050" data-name="Path 11050" d="M25.358,10.168a.952.952,0,0,0-.821-.687L17.2,8.769,15.745,5.232a.345.345,0,0,0-.462-.192.374.374,0,0,0-.184.484l1.537,3.738a.351.351,0,0,0,.29.221l7.546.733a.248.248,0,0,1,.218.182.265.265,0,0,1-.073.281l-5.693,5.238a.378.378,0,0,0-.111.357l1.667,7.741a.261.261,0,0,1-.1.273.236.236,0,0,1-.278.013l-6.516-4.052a.337.337,0,0,0-.359,0L6.711,24.3a.236.236,0,0,1-.278-.013.262.262,0,0,1-.1-.273l.86-4a.369.369,0,0,0-.266-.44.351.351,0,0,0-.42.278l-.86,4a1.012,1.012,0,0,0,.371,1.03.909.909,0,0,0,1.05.051l6.337-3.941,6.336,3.94a.908.908,0,0,0,1.05-.051,1.011,1.011,0,0,0,.371-1.03l-1.62-7.528,5.537-5.093A1.017,1.017,0,0,0,25.358,10.168Z" transform="translate(-1.406 -1.075)" fill="#5b6770"/>
        <path id="Path_11051" data-name="Path 11051" d="M5.441,17.206a.369.369,0,0,0,.266.44.331.331,0,0,0,.078.009.356.356,0,0,0,.343-.287L6.595,15.2a.378.378,0,0,0-.111-.357L.791,9.6a.264.264,0,0,1-.074-.281.25.25,0,0,1,.218-.182l7.546-.733a.354.354,0,0,0,.29-.221l3-7.288a.249.249,0,0,1,.465,0l.814,1.979a.345.345,0,0,0,.462.192.375.375,0,0,0,.184-.484L12.879.6a.94.94,0,0,0-1.757,0L8.208,7.693.87,8.405a.954.954,0,0,0-.821.687,1.018,1.018,0,0,0,.278,1.062l5.537,5.093Z" transform="translate(0)" fill="#5b6770"/>
      </g>
    </g>
  </g>
</svg>
